<?xml version="1.0" encoding="iso-8859-1"?>
<!-- Generator: Adobe Illustrator 16.0.0, SVG Export Plug-In . SVG Version: 6.00 Build 0)  -->
<!DOCTYPE svg PUBLIC "-//W3C//DTD SVG 1.1//EN" "http://www.w3.org/Graphics/SVG/1.1/DTD/svg11.dtd">
<svg version="1.1" id="Capa_1" xmlns="http://www.w3.org/2000/svg" xmlns:xlink="http://www.w3.org/1999/xlink" x="0px" y="0px"
	 width="412.534px" height="412.534px" viewBox="0 0 412.534 412.534" style="enable-background:new 0 0 412.534 412.534;"
	 xml:space="preserve">
<g>
	<g>
		<path d="M361.869,29.199C295.403-29.192,171.885,2.731,85.932,100.525C-0.001,198.319-15.782,324.93,50.675,383.34
			c66.458,58.391,189.985,26.449,275.929-71.327C412.527,214.199,428.318,87.589,361.869,29.199z M258.673,244.369
			c-50.805,57.994-122.571,78.267-160.303,45.238c-37.723-33.062-27.118-106.88,23.685-164.891
			c50.812-58.012,130.277-75.699,168-42.655C327.778,115.084,309.477,186.34,258.673,244.369z"/>
		<path d="M211.664,140.885c-14.853-10.731-39.414-2.06-54.822,19.295c-15.42,21.391-15.872,47.406-1.012,58.122
			c14.868,10.729,39.43,2.096,54.841-19.296C226.099,177.632,226.533,151.599,211.664,140.885z"/>
	</g>
</g>
<g>
</g>
<g>
</g>
<g>
</g>
<g>
</g>
<g>
</g>
<g>
</g>
<g>
</g>
<g>
</g>
<g>
</g>
<g>
</g>
<g>
</g>
<g>
</g>
<g>
</g>
<g>
</g>
<g>
</g>
</svg>
