<svg id="Layer_2" data-name="Layer 2" xmlns="http://www.w3.org/2000/svg" viewBox="0 0 566.93 566.93"><defs><style>.cls-1{font-size:71.68px;}.cls-1,.cls-2,.cls-6{fill:#d9a443;}.cls-1,.cls-2{stroke:#d9a443;stroke-miterlimit:10;font-family:Quicksand-Regular, Quicksand;}.cls-2{font-size:32.52px;}.cls-3{letter-spacing:-0.05em;}.cls-4{letter-spacing:-0.02em;}.cls-5{letter-spacing:-0.03em;}.cls-7{fill:#fff;}</style></defs><title>Artboard 9</title><text class="cls-1" transform="translate(54.61 405.05)">F E L I C I T A</text><text class="cls-2" transform="translate(140.65 456.93)">E<tspan class="cls-3" x="19.28" y="0">X</tspan><tspan x="41.13" y="0">C</tspan><tspan class="cls-4" x="66.21" y="0">L</tspan><tspan x="83.86" y="0">USI</tspan><tspan class="cls-5" x="141.94" y="0">V</tspan><tspan x="165.35" y="0">E </tspan><tspan class="cls-3" x="194.39" y="0">M</tspan><tspan x="220.21" y="0">EBEL</tspan></text><path class="cls-6" d="M176.17,295.33s-4.67-.36-4.49-7c0,0-.9-4.31,3.23-5.57H401.49S405.8,281.5,406,289c0,0,1.26,7-4.13,6.29l-24.8.05,2.88,9.47s2.69,7.91-5,4.68l-17.61-14.2-136.74-.18-16.71,12.94s-2.87,4.85-5.75-.9l3.42-11.86Z"/><path class="cls-6" d="M171.6,265.32s1.16-4.67,15.17-18.86c0,0,16.53-21,51.75-25.34h94.69s22.1-.72,39.89,10.6c0,0,10.6,5,31.8,28.21,0,0,7,14.38-12,14.2H181.2S172.05,275.21,171.6,265.32Z"/><path class="cls-6" d="M162.7,247.64s18.86-11.6,23.35-35c0,0,3.06-10.78-6.64-28.93,0,0-12.22-22.64,0-42.22,0,0,9.88-22.1,51.74-29.11,0,0,19.41-3.24,30.19-3.06L254,87.08l11.68,5.39s-1.8,10.6,4.49,11.32c0,0,11,1.8,7.55-11.5l-3.77-3.59,14.91-16L304.1,88.16S298,91.4,299.43,97c0,0,.72,7.54,8.09,6.82,0,0,9-.89,4-11.32l11.68-5.39-6.83,22.46s46.9.18,68.28,17.07c0,0,21.38,11.5,19,41.33,0,0-3.77,18-11.14,31.08,0,0-5.21,18.33,10.07,34.14l9.34,11.68s7.73,9-1.26,4.13c0,0-25.69-20.12-28.75-37.37,0,0-.9-16.53,2.16-22.28,0,0,27.31-43.66-25.87-57.68s-132.43-2.51-132.43-2.51-34,8.44-36.47,24.43c0,0-5.57,14,3.77,34.32,0,0,9.16,21.56-3.59,38.27a62.22,62.22,0,0,1-19.05,20.49S164,254.93,162.7,247.64Z"/><path class="cls-6" d="M233.13,198.48s10.06,2.16,11-10.24c0,0,.18,10.71,10.42,10.39,0,0-10.06,0-10.69,11.71C243.82,210.34,246.25,199.74,233.13,198.48Z"/><path class="cls-6" d="M233.13,146s10.06,2.16,11-10.24c0,0,.18,10.71,10.42,10.39,0,0-10.06,0-10.69,11.71C243.82,157.9,246.25,147.3,233.13,146Z"/><path class="cls-6" d="M255.59,171.92s10.06,2.15,11-10.25c0,0,.18,10.71,10.42,10.39,0,0-10.06,0-10.69,11.71C266.28,183.77,268.71,173.17,255.59,171.92Z"/><path class="cls-6" d="M210.49,171.92s10.06,2.15,11-10.25c0,0,.18,10.71,10.42,10.39,0,0-10.06,0-10.69,11.71C221.18,183.77,223.61,173.17,210.49,171.92Z"/><path class="cls-6" d="M300.51,171.92s10.06,2.15,11-10.25c0,0,.18,10.71,10.42,10.39,0,0-10.06,0-10.69,11.71C311.2,183.77,313.63,173.17,300.51,171.92Z"/><path class="cls-6" d="M345.61,171.92s10.06,2.15,11-10.25c0,0,.18,10.71,10.42,10.39,0,0-10.06,0-10.69,11.71C356.3,183.77,358.72,173.17,345.61,171.92Z"/><path class="cls-6" d="M323.15,146s10.06,2.16,11-10.24c0,0,.18,10.71,10.42,10.39,0,0-10.06,0-10.69,11.71C333.84,157.9,336.26,147.3,323.15,146Z"/><path class="cls-6" d="M278.19,146s10.06,2.16,11-10.24c0,0,.18,10.71,10.42,10.39,0,0-10.06,0-10.69,11.71C288.88,157.9,291.3,147.3,278.19,146Z"/><path class="cls-7" d="M281.26,90.79s7.17,1.53,7.81-7.31c0,0,.13,7.64,7.43,7.41,0,0-7.17,0-7.62,8.35C288.88,99.24,290.61,91.68,281.26,90.79Z"/><path class="cls-6" d="M278.19,199.23s10.06,2.15,11-10.24c0,0,.18,10.7,10.42,10.38,0,0-10.06,0-10.69,11.72C288.88,211.09,291.3,200.48,278.19,199.23Z"/><path class="cls-6" d="M323.15,199.23s10.06,2.15,11-10.24c0,0,.18,10.7,10.42,10.38,0,0-10.06,0-10.69,11.72C333.84,211.09,336.26,200.48,323.15,199.23Z"/></svg>